<svg id="LogoJMultimídia" xmlns="http://www.w3.org/2000/svg" viewBox="0 0 1052.52 154"><defs><style>.cls-1{fill:#fff;}</style></defs><g id="Balão"><path id="DetalheBalãozinho" class="cls-1" d="M46.67,537.62,15.4,560.2a2.59,2.59,0,0,0,2.15,4.61l29.12-7.4Z" transform="translate(-14.32 -465.53)"/><path id="Balão-2" data-name="Balão" class="cls-1" d="M197,465.53H64.33a17.66,17.66,0,0,0-17.66,17.66V601.87a17.66,17.66,0,0,0,17.66,17.66H197a17.66,17.66,0,0,0,17.66-17.66V483.19A17.66,17.66,0,0,0,197,465.53Zm-4.17,115.61a10,10,0,0,1-3.06,7.35,10.88,10.88,0,0,1-3.41,2.18,10.68,10.68,0,0,1-8.16,0,10,10,0,0,1-3.3-2.18,9.72,9.72,0,0,1-3.14-7.35V522.48a9.85,9.85,0,0,0-.88-4,11.45,11.45,0,0,0-2.34-3.4,10.13,10.13,0,0,0-3.45-2.26A10.9,10.9,0,0,0,161,512a9.6,9.6,0,0,0-7.28,3,10.87,10.87,0,0,0-3.06,7.35V581a10.11,10.11,0,0,1-3.07,7.42,10.48,10.48,0,0,1-7.43,3.07A10.48,10.48,0,0,1,129.62,581V522.64a10.9,10.9,0,0,0-3-7.58,10.26,10.26,0,0,0-3.41-2.26A10.77,10.77,0,0,0,119,512a10.25,10.25,0,0,0-7.51,3.07,10.49,10.49,0,0,0-.77.86s-.21.27-.4.54a11.61,11.61,0,0,0-1.4,3,15.6,15.6,0,0,0-.46,4.13c.12,17.49,0,36.29,0,36.52v.26c0,.3,0,.77,0,1.34a34.54,34.54,0,0,1-1,7,35.14,35.14,0,0,1-9,15.88,35.25,35.25,0,0,1-11.23,7.55,34.06,34.06,0,0,1-13.45,2.71,10.72,10.72,0,0,1-8.12-3.21,9,9,0,0,1-2.07-3.18,10.29,10.29,0,0,1-.69-3.71,11,11,0,0,1,.65-3.72,9,9,0,0,1,2-3.17,10.86,10.86,0,0,1,7.81-3.37,16.11,16.11,0,0,0,10.5-4.67,14.89,14.89,0,0,0,3.34-5,3.12,3.12,0,0,0,.12-.33h0a18.7,18.7,0,0,0,.74-2.93c.34-2.14.54-60.9.82-64.76a5.85,5.85,0,0,1,.89-2.82c2.91-4.41,12.91-4.61,16.67-1.29l.33-.15a30.69,30.69,0,0,1,12.22-2.45,30.39,30.39,0,0,1,11.46,2.18,31.47,31.47,0,0,1,9.69,6.17,31.57,31.57,0,0,1,9.66-6.17,30.07,30.07,0,0,1,11.42-2.18,31.3,31.3,0,0,1,12.3,2.45,31.78,31.78,0,0,1,17,17,30.87,30.87,0,0,1,2.45,12.14Z" transform="translate(-14.32 -465.53)"/></g><g id="NomeJmultimidia"><path id="AcentoÍ" class="cls-1" d="M797.88,493.17l22.86-16a10.23,10.23,0,0,1,4.57-1.85,10.75,10.75,0,0,1,8.29,2.58c6.23,5,2.9,13.36,2.9,13.36s-1.39,4.6-9.19,5.87c-6.67,1.09-21.63,3.23-25.85,3.83a4.43,4.43,0,0,1-3.3-.76,4,4,0,0,1-1.07-1.31,4.66,4.66,0,0,1-.65-3.27A4.45,4.45,0,0,1,797.88,493.17Z" transform="translate(-14.32 -465.53)"/><path id="A" class="cls-1" d="M1007.42,596a43.19,43.19,0,0,1-13.77-9.27A42.3,42.3,0,0,1,984.33,573a42.53,42.53,0,0,1,0-33.09,43.43,43.43,0,0,1,23.09-23.11,41.79,41.79,0,0,1,16.49-3.3,42.39,42.39,0,0,1,30.08,12.4,42.87,42.87,0,0,1,9.28,13.53,42.38,42.38,0,0,1,3.56,16.35v31.55a11.46,11.46,0,0,1-3.43,8.44,12,12,0,0,1-8.53,3.51,11,11,0,0,1-9.85-5.53,42.76,42.76,0,0,1-21.11,5.53A42,42,0,0,1,1007.42,596Zm24.05-21.67a18.88,18.88,0,0,0,6.25-4.13,19.45,19.45,0,0,0,4.22-6.24,19.35,19.35,0,0,0,0-14.94,19.67,19.67,0,0,0-4.22-6.24,19,19,0,0,0-6.25-4.13,19.45,19.45,0,0,0-7.56-1.49,18.93,18.93,0,0,0-7.43,1.49,19.17,19.17,0,0,0-6.21,4.13,20.3,20.3,0,0,0-4.26,6.24,18.89,18.89,0,0,0,0,14.94,20.06,20.06,0,0,0,4.26,6.24,19.52,19.52,0,0,0,13.64,5.63A19.46,19.46,0,0,0,1031.47,574.36Z" transform="translate(-14.32 -465.53)"/><path id="I" class="cls-1" d="M947.47,502.73a13.22,13.22,0,0,1-2.77-4,11.52,11.52,0,0,1-1-4.75,12.15,12.15,0,0,1,3.78-8.87,11.94,11.94,0,0,1,8.8-3.61,12.66,12.66,0,0,1,4.83.93,11.79,11.79,0,0,1,4,2.68,12.41,12.41,0,0,1,0,17.66,12.69,12.69,0,0,1-4,2.73,12.32,12.32,0,0,1-4.83,1A12,12,0,0,1,947.47,502.73Zm4.27,95.67a11.69,11.69,0,0,1-3.74-2.5,11.54,11.54,0,0,1-2.64-3.74,10.61,10.61,0,0,1-1-4.44V525.14a10.6,10.6,0,0,1,1-4.43,12.21,12.21,0,0,1,6.46-6.24,12,12,0,0,1,4.62-.93,11.05,11.05,0,0,1,4.44.93,11.69,11.69,0,0,1,3.74,2.5,10.75,10.75,0,0,1,2.42,3.69,12,12,0,0,1,.84,4.48v62.58a11.05,11.05,0,0,1-.93,4.44,11.8,11.8,0,0,1-2.5,3.74,12,12,0,0,1-3.7,2.5,11,11,0,0,1-4.48.92A11.26,11.26,0,0,1,951.74,598.4Z" transform="translate(-14.32 -465.53)"/><path id="D" class="cls-1" d="M868.17,596a43,43,0,0,1-13.76-9.27A42.49,42.49,0,0,1,845.08,573a42.65,42.65,0,0,1,0-33.09,43.52,43.52,0,0,1,23.09-23.11,41.83,41.83,0,0,1,16.49-3.3,32.82,32.82,0,0,1,12,1.85,17.38,17.38,0,0,1,7.52,5.62V494.47a12.16,12.16,0,0,1,3.34-8.7,10.9,10.9,0,0,1,8.27-3.43,11.94,11.94,0,0,1,8.36,3.43,12.58,12.58,0,0,1,3.43,8.7v62a41.78,41.78,0,0,1-3.3,16.48,43.1,43.1,0,0,1-23,23,42.92,42.92,0,0,1-33.08,0Zm24.06-21.67a18.83,18.83,0,0,0,6.24-4.13A19.48,19.48,0,0,0,902.7,564a19.47,19.47,0,0,0,0-14.94,19.7,19.7,0,0,0-4.23-6.24,19,19,0,0,0-6.24-4.13,19.54,19.54,0,0,0-7.57-1.49,19,19,0,0,0-7.43,1.49,19.24,19.24,0,0,0-6.2,4.13,20.33,20.33,0,0,0-4.27,6.24,19,19,0,0,0,0,14.94,20.09,20.09,0,0,0,4.27,6.24,19.47,19.47,0,0,0,13.63,5.63A19.55,19.55,0,0,0,892.23,574.36Z" transform="translate(-14.32 -465.53)"/><path id="I-2" data-name="I" class="cls-1" d="M809.28,597.43a11.65,11.65,0,0,1-3.78-2.5,12.82,12.82,0,0,1-2.64-3.78,10.56,10.56,0,0,1-1-4.48V525.32a11.13,11.13,0,0,1,1-4.57,12.2,12.2,0,0,1,6.42-6.28,12.08,12.08,0,0,1,4.75-.93,11.05,11.05,0,0,1,4.44.93,11.69,11.69,0,0,1,3.74,2.5,11,11,0,0,1,2.46,3.74,12,12,0,0,1,.88,4.61v61.35a11.25,11.25,0,0,1-3.43,8.26,11.75,11.75,0,0,1-3.73,2.5,11.34,11.34,0,0,1-4.53.93A11.65,11.65,0,0,1,809.28,597.43Z" transform="translate(-14.32 -465.53)"/><path id="M" class="cls-1" d="M682.18,595a12.06,12.06,0,0,1-2.51-3.69,11,11,0,0,1-.92-4.49V542.37a30.34,30.34,0,0,1,2.46-12.13,32.16,32.16,0,0,1,6.86-10.11,30.79,30.79,0,0,1,22.17-9.22,31.46,31.46,0,0,1,20,7.2,31.37,31.37,0,0,1,20-7.2,32.15,32.15,0,0,1,12.31,2.41A33.42,33.42,0,0,1,773,520.13a32,32,0,0,1,7.13,10.16,29.46,29.46,0,0,1,2.55,12.08v44.47a11,11,0,0,1-.93,4.49,12,12,0,0,1-2.5,3.69,11.07,11.07,0,0,1-8.1,3.34,11.24,11.24,0,0,1-8.26-3.34,11.89,11.89,0,0,1-2.51-3.69,11,11,0,0,1-.92-4.49V543.07a6.76,6.76,0,0,0-.8-3.12,9,9,0,0,0-2.11-2.68,10.92,10.92,0,0,0-2.94-1.67,9.08,9.08,0,0,0-3.22-.61,8.08,8.08,0,0,0-5.4,2,7.8,7.8,0,0,0-2.78,5,2.2,2.2,0,0,0,.09.7v43.86a11.57,11.57,0,0,1-3.34,8.26,12.06,12.06,0,0,1-3.69,2.51,11.68,11.68,0,0,1-16.19-10.77V544.22l-.18-1.06v-.09a7.88,7.88,0,0,0-.66-3.12,8.37,8.37,0,0,0-4.48-4.48,7.88,7.88,0,0,0-3.12-.66,8.67,8.67,0,0,0-5.46,1.85,8.36,8.36,0,0,0-3.08,4.74,14.18,14.18,0,0,1,.18,1.67L702,586.84a12.75,12.75,0,0,1-1,4.49,11.58,11.58,0,0,1-2.46,3.69,11.07,11.07,0,0,1-8.1,3.34A11.24,11.24,0,0,1,682.18,595Z" transform="translate(-14.32 -465.53)"/><path id="I-3" data-name="I" class="cls-1" d="M641.27,502.73a13.4,13.4,0,0,1-2.77-4,11.68,11.68,0,0,1-1-4.75,12.15,12.15,0,0,1,3.78-8.87,12,12,0,0,1,8.8-3.61,12.75,12.75,0,0,1,4.84.93,11.85,11.85,0,0,1,4,2.68,12.39,12.39,0,0,1,0,17.66,12.76,12.76,0,0,1-4,2.73,12.4,12.4,0,0,1-4.84,1A12,12,0,0,1,641.27,502.73Zm4.27,95.67a12.44,12.44,0,0,1-6.38-6.24,10.76,10.76,0,0,1-1-4.44V525.14a10.75,10.75,0,0,1,1-4.43A11.74,11.74,0,0,1,641.8,517a11.56,11.56,0,0,1,3.83-2.5,11.91,11.91,0,0,1,4.62-.93,11.12,11.12,0,0,1,4.44.93,11.8,11.8,0,0,1,3.74,2.5,10.9,10.9,0,0,1,2.42,3.69,12.21,12.21,0,0,1,.83,4.48v62.58a11.21,11.21,0,0,1-.92,4.44,11.73,11.73,0,0,1-6.2,6.24,11,11,0,0,1-4.49.92A11.33,11.33,0,0,1,645.54,598.4Z" transform="translate(-14.32 -465.53)"/><path id="T" class="cls-1" d="M579.13,596.07a42.85,42.85,0,0,1-23-23,41.91,41.91,0,0,1-3.35-16.57V499.66a11.56,11.56,0,0,1,.93-4.57,11.82,11.82,0,0,1,6.33-6.38,11.5,11.5,0,0,1,4.53-.92,12.16,12.16,0,0,1,4.62.92,12.61,12.61,0,0,1,3.91,2.51,13.17,13.17,0,0,1,2.69,3.87,10.83,10.83,0,0,1,1,4.57v11.25h27a11.29,11.29,0,0,1,4.53.92,12.93,12.93,0,0,1,3.83,2.5,13.16,13.16,0,0,1,2.51,3.83,11.42,11.42,0,0,1,.92,4.52,10.46,10.46,0,0,1-3.43,7.91,12.08,12.08,0,0,1-3.83,2.46,11.79,11.79,0,0,1-4.53.88h-27V556.7a20.21,20.21,0,0,0,1.41,7.51,17.94,17.94,0,0,0,4,6.2,18.25,18.25,0,0,0,6.07,4.17,18.73,18.73,0,0,0,7.39,1.45q7.65,0,12.14-4.13,4.21-3.95,8.88-3.95a10.16,10.16,0,0,1,3.92.83,9.87,9.87,0,0,1,3.38,2.33,11,11,0,0,1,3.26,7.74,13.9,13.9,0,0,1-1.1,5.36,14.67,14.67,0,0,1-3.12,4.66,36.24,36.24,0,0,1-12.41,7.91,43.28,43.28,0,0,1-31.53-.71Z" transform="translate(-14.32 -465.53)"/><path id="L" class="cls-1" d="M519.84,596.29a30.48,30.48,0,0,1-9.72-5.84,27.74,27.74,0,0,1-6.59-9.14,27.44,27.44,0,0,1-2.38-11.43V494.82a11.21,11.21,0,0,1,3.34-8.26,10.5,10.5,0,0,1,7.92-3.43,12,12,0,0,1,4.62.93,12.58,12.58,0,0,1,3.91,2.5,13,13,0,0,1,2.64,3.78,10.56,10.56,0,0,1,1,4.48v75.59q.35,5,6.86,5a12.06,12.06,0,0,1,4.62.88,10.23,10.23,0,0,1,3.65,2.46,10.8,10.8,0,0,1,2.42,3.69,12.51,12.51,0,0,1,0,9,10.53,10.53,0,0,1-6.12,6.07,12.3,12.3,0,0,1-4.57.88A32.57,32.57,0,0,1,519.84,596.29Z" transform="translate(-14.32 -465.53)"/><path id="U" class="cls-1" d="M425.59,596.07a42.51,42.51,0,0,1-22.52-22.41,40,40,0,0,1-3.25-16V525.14a11.15,11.15,0,0,1,.92-4.48,12,12,0,0,1,2.51-3.69,11.69,11.69,0,0,1,3.74-2.5,11.05,11.05,0,0,1,4.44-.93,11.34,11.34,0,0,1,4.53.93,12.93,12.93,0,0,1,3.83,2.5,11.92,11.92,0,0,1,2.5,3.69,11,11,0,0,1,.93,4.48v32.79a18.18,18.18,0,0,0,1.4,7.16,16.48,16.48,0,0,0,4,5.67,18.45,18.45,0,0,0,5.9,3.82,18.85,18.85,0,0,0,7.21,1.37,16.74,16.74,0,0,0,6.86-1.37,14.87,14.87,0,0,0,5.28-3.91,17.55,17.55,0,0,0,3.25-5.8,22.19,22.19,0,0,0,1.15-7.21V525.14a10.75,10.75,0,0,1,1-4.43,12.15,12.15,0,0,1,11-7.17,11,11,0,0,1,4.48.93,12,12,0,0,1,3.7,2.5,10.9,10.9,0,0,1,2.42,3.69,12.21,12.21,0,0,1,.83,4.48v32.52a44,44,0,0,1-2.94,16.09,40.29,40.29,0,0,1-8.4,13.27,39.22,39.22,0,0,1-12.8,9.05,38.54,38.54,0,0,1-15.79,3.25A40.71,40.71,0,0,1,425.59,596.07Z" transform="translate(-14.32 -465.53)"/></g><g id="JM"><path id="J" class="cls-1" d="M236,598.58a10.18,10.18,0,0,1-2.37-3.65,11.79,11.79,0,0,1-.8-4.26,12.43,12.43,0,0,1,.75-4.27,10.52,10.52,0,0,1,2.24-3.64q3.18-3.53,9-3.87a18.29,18.29,0,0,0,6.55-1.58,18.59,18.59,0,0,0,5.5-3.78,17.22,17.22,0,0,0,3.83-5.68l.14-.37h0a22.42,22.42,0,0,0,.85-3.37c.39-2.46.61-69.91.94-74.33a6.65,6.65,0,0,1,1-3.24c3.7-5.61,17.44-5.3,20.29-.1a5.09,5.09,0,0,1,.58,2.23c1.09,12.28.76,73.24.76,73.7v.29c0,.35,0,.89,0,1.55a39,39,0,0,1-1.19,8,38.51,38.51,0,0,1-1.85,5.49,39.61,39.61,0,0,1-8.53,12.74,40.45,40.45,0,0,1-12.89,8.66,39.09,39.09,0,0,1-15.44,3.12A12.28,12.28,0,0,1,236,598.58Z" transform="translate(-14.32 -465.53)"/><path id="M-2" data-name="M" class="cls-1" d="M263.79,504.36c.52-2.41,3-5.88,4.11-7.35a36.51,36.51,0,0,1,15.24-12.12,35.23,35.23,0,0,1,14-2.81,34.8,34.8,0,0,1,13.15,2.5,36,36,0,0,1,11.12,7.08,36.27,36.27,0,0,1,11.09-7.08,34.4,34.4,0,0,1,13.1-2.5,35.91,35.91,0,0,1,14.12,2.81,36.38,36.38,0,0,1,19.49,19.47,35.42,35.42,0,0,1,2.81,13.93v68.2a11.49,11.49,0,0,1-3.52,8.44,12.58,12.58,0,0,1-3.91,2.5,12.26,12.26,0,0,1-9.37,0,11.54,11.54,0,0,1-3.78-2.5,11.18,11.18,0,0,1-3.61-8.44V519.17a11.22,11.22,0,0,0-1-4.62,13.39,13.39,0,0,0-2.68-3.91,11.83,11.83,0,0,0-4-2.59,12.51,12.51,0,0,0-4.75-.92,11,11,0,0,0-8.36,3.42,12.52,12.52,0,0,0-3.52,8.44v67.33a11.57,11.57,0,0,1-3.52,8.52,11.7,11.7,0,0,1-3.87,2.59,11.82,11.82,0,0,1-4.66.93,12,12,0,0,1-12-12v-67a12.57,12.57,0,0,0-.92-4.79,12.73,12.73,0,0,0-2.51-3.91,11.82,11.82,0,0,0-3.91-2.59,12.43,12.43,0,0,0-4.8-.92,11.75,11.75,0,0,0-8.62,3.51c-.31.32-.61.65-.89,1,0,0-.24.3-.46.61a13.11,13.11,0,0,0-1.6,3.45c-.95,3.37-.08,6-1,6.86C282,525.14,261.92,513,263.79,504.36Z" transform="translate(-14.32 -465.53)"/></g></svg>